HIERARCHY
ROOT Hips
{
	OFFSET 0.00 0.00 0.00
	CHANNELS 6 Xposition Yposition Zposition Xrotation Yrotation Zrotation
	JOINT Spine
	{
		OFFSET 0.00000 1.92919 2.89379
		CHANNELS 3 Xrotation Yrotation Zrotation
		JOINT Spine1
		{
			OFFSET 0.00000 0.67000 3.79977
			CHANNELS 3 Xrotation Yrotation Zrotation
			JOINT Spine2
			{
				OFFSET 0.00000 0.33628 3.84370
				CHANNELS 3 Xrotation Yrotation Zrotation
				JOINT Spine3
				{
					OFFSET 0.00000 0.00000 3.85838
					CHANNELS 3 Xrotation Yrotation Zrotation
					JOINT Neck
					{
						OFFSET 0.00000 -1.44689 10.12826
						CHANNELS 3 Xrotation Yrotation Zrotation
						JOINT Head
						{
							OFFSET 0.00000 -0.92125 5.22468
							CHANNELS 3 Xrotation Yrotation Zrotation
							End Site
							{
								OFFSET 0.00000 0.00000 6.24576
							}
						}
					}
					JOINT RightShoulder
					{
						OFFSET -1.19724 -1.99540 6.46510
						CHANNELS 3 Xrotation Yrotation Zrotation
						JOINT RightArm
						{
							OFFSET -5.94629 -0.00000 0.00000
							CHANNELS 3 Xrotation Yrotation Zrotation
							JOINT RightForeArm
							{
								OFFSET -11.02134 -0.00000 0.00000
								CHANNELS 3 Xrotation Yrotation Zrotation
								JOINT RightHand
								{
									OFFSET -10.43440 -0.00000 0.00000
									CHANNELS 3 Xrotation Yrotation Zrotation
									JOINT RightHandEnd
									{
										OFFSET -2.82937 -0.00000 0.00000
										CHANNELS 3 Xrotation Yrotation Zrotation
										End Site
										{
											OFFSET -2.82937 -0.00000 0.00000
										}
									}
									JOINT RightHandThumb1
									{
										OFFSET -1.13175 -1.88625 -0.75450
										CHANNELS 3 Xrotation Yrotation Zrotation
										End Site
										{
											OFFSET -2.73296 -0.73229 0.00000
										}
									}
								}
							}
						}
					}
					JOINT LeftShoulder
					{
						OFFSET 1.19724 -1.99540 6.46510
						CHANNELS 3 Xrotation Yrotation Zrotation
						JOINT LeftArm
						{
							OFFSET 5.94629 0.00000 0.00000
							CHANNELS 3 Xrotation Yrotation Zrotation
							JOINT LeftForeArm
							{
								OFFSET 11.02134 0.00000 0.00000
								CHANNELS 3 Xrotation Yrotation Zrotation
								JOINT LeftHand
								{
									OFFSET 10.43440 0.00000 0.00000
									CHANNELS 3 Xrotation Yrotation Zrotation
									JOINT LeftHandEnd
									{
										OFFSET 2.82937 0.00000 0.00000
										CHANNELS 3 Xrotation Yrotation Zrotation
										End Site
										{
											OFFSET 2.82937 0.00000 0.00000
										}
									}
									JOINT LeftHandThumb1
									{
										OFFSET 1.13175 -1.88625 -0.75450
										CHANNELS 3 Xrotation Yrotation Zrotation
										End Site
										{
											OFFSET 2.73296 -0.73229 0.00000
										}
									}
								}
							}
						}
					}
				}
			}
		}
	}
	JOINT RightUpLeg
	{
		OFFSET -3.55181 0.00000 -1.03761
		CHANNELS 3 Xrotation Yrotation Zrotation
		JOINT RightLeg
		{
			OFFSET 0.00000 0.00000 -15.86106
			CHANNELS 3 Xrotation Yrotation Zrotation
			JOINT RightFoot
			{
				OFFSET 0.00000 0.00000 -16.30493
				CHANNELS 3 Xrotation Yrotation Zrotation
				JOINT RightToeBase
				{
					OFFSET 0.00000 -5.76215 -2.09725
					CHANNELS 3 Xrotation Yrotation Zrotation
					End Site
					{
						OFFSET 0.00000 -2.87338 0.00000
					}
				}
			}
		}
	}
	JOINT LeftUpLeg
	{
		OFFSET 3.55181 0.00000 -1.03761
		CHANNELS 3 Xrotation Yrotation Zrotation
		JOINT LeftLeg
		{
			OFFSET 0.00000 0.00000 -15.86106
			CHANNELS 3 Xrotation Yrotation Zrotation
			JOINT LeftFoot
			{
				OFFSET 0.00000 0.00000 -16.30493
				CHANNELS 3 Xrotation Yrotation Zrotation
				JOINT LeftToeBase
				{
					OFFSET 0.00000 -5.76215 -2.09725
					CHANNELS 3 Xrotation Yrotation Zrotation
					End Site
					{
						OFFSET 0.00000 -2.87338 0.00000
					}
				}
			}
		}
	}
}
MOTION
Frames: 13
Frame Time: 0.008342
 13.8880 -58.8430 35.7192 0.2518 -0.5171 176.1018 -0.3239 0.5212 0.0382 -0.6802 0.1022 0.0119 4.5154 -0.1803 -0.7406 2.5186 0.2849 -0.4611 9.7842 -0.7329 -8.1640 1.2698 -4.1419 -14.9230 3.4212 13.6916 -8.1146 -6.4453 -20.3163 7.7771 -0.0000 0.0000 -0.7091 -17.8682 4.4233 -4.5480 -0.0000 0.0000 -0.0000 0.0000 0.0000 0.0000 4.0530 -18.0736 11.1148 5.1186 18.0745 -7.1702 -0.0000 -0.0000 0.3856 -17.9688 11.5118 9.8644 -0.0000 0.0000 -0.0000 -0.0000 -0.0000 0.0000 -0.5957 1.0581 -39.1661 5.4578 0.0000 -0.0000 -5.0126 -1.8764 -3.1099 1.6266 0.0000 -0.0000 0.0785 -1.8238 33.6212 6.1387 0.0000 -0.0000 -5.5221 4.8239 4.7340 -1.1652 0.0000 -0.0000
 13.8889 -58.8424 35.7189 0.2552 -0.5167 176.1151 -0.3248 0.5217 0.0379 -0.6799 0.1032 0.0117 4.5167 -0.1799 -0.7425 2.5194 0.2854 -0.4620 9.7884 -0.7284 -8.1652 1.2733 -4.1444 -14.9193 3.4262 13.6892 -8.1159 -6.4514 -20.3195 7.7821 0.0000 -0.0000 -0.6994 -17.8869 4.4100 -4.5289 -0.0000 0.0000 -0.0000 -0.0000 0.0000 -0.0000 4.0564 -18.0755 11.1122 5.1304 18.0700 -7.1731 -0.0000 -0.0000 0.3877 -17.9667 11.5013 9.8407 0.0000 0.0000 0.0000 -0.0000 0.0000 -0.0000 -0.5934 1.0589 -39.1615 5.4648 -0.0000 0.0000 -5.0188 -1.8722 -3.1251 1.6276 -0.0000 0.0000 0.0770 -1.8262 33.6008 6.1465 -0.0000 0.0000 -5.5248 4.8213 4.7422 -1.1642 0.0000 0.0000
 13.8903 -58.8415 35.7185 0.2640 -0.5182 176.1326 -0.3202 0.5226 0.0364 -0.6809 0.1032 0.0128 4.5183 -0.1804 -0.7463 2.5206 0.2866 -0.4626 9.7940 -0.7233 -8.1668 1.2768 -4.1484 -14.9149 3.4338 13.6867 -8.1188 -6.4568 -20.3237 7.7922 0.0000 -0.0000 -0.6887 -17.9096 4.3933 -4.5051 -0.0000 -0.0000 0.0000 0.0000 0.0000 -0.0000 4.0624 -18.0784 11.1123 5.1421 18.0644 -7.1795 0.0000 0.0000 0.3903 -17.9628 11.4789 9.8088 0.0000 -0.0000 0.0000 -0.0000 -0.0000 0.0000 -0.5839 1.0572 -39.1577 5.4712 0.0000 -0.0000 -5.0253 -1.8688 -3.1433 1.6271 -0.0000 0.0000 0.0804 -1.8316 33.5782 6.1568 0.0000 -0.0000 -5.5287 4.8191 4.7486 -1.1628 -0.0000 -0.0000
 13.8918 -58.8406 35.7181 0.2699 -0.5177 176.1516 -0.3218 0.5239 0.0365 -0.6798 0.1048 0.0122 4.5209 -0.1804 -0.7489 2.5215 0.2872 -0.4633 9.8001 -0.7160 -8.1682 1.2801 -4.1551 -14.9100 3.4402 13.6832 -8.1185 -6.4629 -20.3263 7.7999 -0.0000 0.0000 -0.6737 -17.9344 4.3749 -4.4802 -0.0000 0.0000 -0.0000 0.0000 -0.0000 -0.0000 4.0677 -18.0809 11.1122 5.1540 18.0572 -7.1858 -0.0000 -0.0000 0.3921 -17.9578 11.4401 9.7693 0.0000 -0.0000 0.0000 -0.0000 0.0000 0.0000 -0.5796 1.0585 -39.1530 5.4824 0.0000 0.0000 -5.0350 -1.8630 -3.1637 1.6268 0.0000 -0.0000 0.0798 -1.8355 33.5519 6.1677 0.0000 -0.0000 -5.5321 4.8169 4.7575 -1.1620 0.0000 0.0000
 13.8937 -58.8392 35.7177 0.2821 -0.5192 176.1744 -0.3173 0.5245 0.0350 -0.6791 0.1060 0.0124 4.5230 -0.1802 -0.7521 2.5226 0.2876 -0.4633 9.8077 -0.7087 -8.1702 1.2820 -4.1627 -14.9049 3.4482 13.6797 -8.1188 -6.4688 -20.3292 7.8099 0.0000 -0.0000 -0.6570 -17.9619 4.3551 -4.4553 -0.0000 -0.0000 0.0000 0.0000 0.0000 -0.0000 4.0731 -18.0847 11.1120 5.1649 18.0497 -7.1914 0.0000 -0.0000 0.3916 -17.9510 11.3827 9.7222 0.0000 -0.0000 0.0000 -0.0000 -0.0000 0.0000 -0.5664 1.0566 -39.1501 5.4914 0.0000 -0.0000 -5.0442 -1.8589 -3.1858 1.6255 0.0000 -0.0000 0.0864 -1.8421 33.5269 6.1790 -0.0000 0.0000 -5.5358 4.8155 4.7614 -1.1612 -0.0000 0.0000
 13.8957 -58.8381 35.7174 0.2885 -0.5184 176.1978 -0.3193 0.5267 0.0350 -0.6787 0.1075 0.0123 4.5254 -0.1805 -0.7546 2.5243 0.2884 -0.4640 9.8159 -0.7005 -8.1715 1.2814 -4.1731 -14.9002 3.4547 13.6755 -8.1168 -6.4761 -20.3311 7.8175 0.0000 -0.0000 -0.6369 -17.9886 4.3371 -4.4334 -0.0000 0.0000 0.0000 0.0000 0.0000 -0.0000 4.0762 -18.0873 11.1109 5.1753 18.0400 -7.1959 -0.0000 0.0000 0.3901 -17.9435 11.3059 9.6664 -0.0000 0.0000 -0.0000 -0.0000 -0.0000 -0.0000 -0.5615 1.0579 -39.1483 5.5048 -0.0000 -0.0000 -5.0562 -1.8522 -3.2077 1.6250 0.0000 -0.0000 0.0858 -1.8469 33.4990 6.1909 0.0000 -0.0000 -5.5388 4.8137 4.7677 -1.1610 -0.0000 -0.0000
 13.8982 -58.8362 35.7171 0.3055 -0.5207 176.2233 -0.3119 0.5277 0.0338 -0.6778 0.1083 0.0128 4.5276 -0.1806 -0.7561 2.5254 0.2886 -0.4644 9.8256 -0.6920 -8.1726 1.2798 -4.1843 -14.8959 3.4629 13.6720 -8.1152 -6.4828 -20.3324 7.8268 0.0000 -0.0000 -0.6175 -18.0162 4.3189 -4.4151 -0.0000 0.0000 -0.0000 0.0000 -0.0000 0.0000 4.0790 -18.0910 11.1083 5.1834 18.0300 -7.1979 -0.0000 -0.0000 0.3854 -17.9377 11.2102 9.6065 -0.0000 0.0000 -0.0000 0.0000 0.0000 0.0000 -0.5412 1.0544 -39.1508 5.5120 -0.0000 0.0000 -5.0661 -1.8491 -3.2279 1.6242 -0.0000 -0.0000 0.0990 -1.8546 33.4781 6.2005 -0.0000 -0.0000 -5.5413 4.8135 4.7648 -1.1613 -0.0000 0.0000
 13.9005 -58.8344 35.7169 0.3183 -0.5205 176.2488 -0.3085 0.5303 0.0330 -0.6778 0.1091 0.0138 4.5293 -0.1809 -0.7575 2.5273 0.2896 -0.4650 9.8353 -0.6847 -8.1720 1.2756 -4.1972 -14.8918 3.4695 13.6684 -8.1112 -6.4903 -20.3330 7.8339 0.0000 -0.0000 -0.5977 -18.0431 4.3045 -4.4012 -0.0000 -0.0000 0.0000 0.0000 -0.0000 0.0000 4.0790 -18.0936 11.1046 5.1884 18.0183 -7.1958 0.0000 -0.0000 0.3764 -17.9314 11.0961 9.5437 0.0000 -0.0000 0.0000 -0.0000 0.0000 -0.0000 -0.5265 1.0539 -39.1576 5.5216 -0.0000 0.0000 -5.0780 -1.8444 -3.2440 1.6250 -0.0000 0.0000 0.1079 -1.8598 33.4583 6.2091 -0.0000 -0.0000 -5.5423 4.8133 4.7607 -1.1624 -0.0000 0.0000
 13.9031 -58.8325 35.7169 0.3319 -0.5214 176.2737 -0.3061 0.5309 0.0333 -0.6765 0.1105 0.0134 4.5319 -0.1795 -0.7568 2.5282 0.2891 -0.4646 9.8458 -0.6782 -8.1712 1.2690 -4.2110 -14.8881 3.4743 13.6643 -8.1055 -6.4966 -20.3307 7.8375 -0.0000 -0.0000 -0.5776 -18.0690 4.2921 -4.3945 -0.0000 -0.0000 0.0000 0.0000 -0.0000 0.0000 4.0773 -18.0959 11.0983 5.1910 18.0058 -7.1913 -0.0000 -0.0000 0.3652 -17.9275 10.9666 9.4778 -0.0000 0.0000 0.0000 0.0000 0.0000 0.0000 -0.5094 1.0512 -39.1663 5.5279 -0.0000 0.0000 -5.0887 -1.8411 -3.2586 1.6263 0.0000 -0.0000 0.1191 -1.8659 33.4430 6.2157 0.0000 0.0000 -5.5427 4.8133 4.7523 -1.1643 0.0000 -0.0000
 13.9056 -58.8306 35.7169 0.3434 -0.5215 176.2981 -0.3052 0.5323 0.0328 -0.6758 0.1109 0.0135 4.5338 -0.1776 -0.7546 2.5296 0.2893 -0.4650 9.8559 -0.6738 -8.1681 1.2606 -4.2252 -14.8842 3.4777 13.6601 -8.0977 -6.5022 -20.3274 7.8394 -0.0000 0.0000 -0.5599 -18.0937 4.2834 -4.3926 -0.0000 0.0000 0.0000 -0.0000 -0.0000 0.0000 4.0769 -18.0961 11.0951 5.1881 17.9905 -7.1879 0.0000 0.0000 0.3518 -17.9261 10.8262 9.4118 -0.0000 -0.0000 -0.0000 -0.0000 0.0000 -0.0000 -0.4938 1.0491 -39.1801 5.5329 -0.0000 -0.0000 -5.0993 -1.8379 -3.2679 1.6291 0.0000 -0.0000 0.1291 -1.8710 33.4317 6.2205 -0.0000 0.0000 -5.5420 4.8132 4.7403 -1.1666 -0.0000 -0.0000
 13.9081 -58.8287 35.7170 0.3546 -0.5219 176.3212 -0.3047 0.5326 0.0326 -0.6755 0.1113 0.0137 4.5358 -0.1751 -0.7512 2.5307 0.2890 -0.4647 9.8659 -0.6712 -8.1639 1.2509 -4.2391 -14.8798 3.4806 13.6565 -8.0893 -6.5082 -20.3231 7.8386 -0.0000 0.0000 -0.5446 -18.1175 4.2773 -4.3954 -0.0000 0.0000 -0.0000 0.0000 0.0000 -0.0000 4.0735 -18.0954 11.0882 5.1827 17.9737 -7.1797 -0.0000 -0.0000 0.3351 -17.9274 10.6805 9.3445 -0.0000 0.0000 0.0000 -0.0000 -0.0000 -0.0000 -0.4768 1.0455 -39.1972 5.5343 -0.0000 -0.0000 -5.1086 -1.8356 -3.2734 1.6331 -0.0000 0.0000 0.1403 -1.8761 33.4240 6.2231 -0.0000 -0.0000 -5.5405 4.8131 4.7254 -1.1698 0.0000 0.0000
 13.9106 -58.8267 35.7172 0.3666 -0.5224 176.3428 -0.3034 0.5331 0.0330 -0.6748 0.1108 0.0136 4.5372 -0.1722 -0.7458 2.5316 0.2890 -0.4648 9.8757 -0.6705 -8.1580 1.2406 -4.2530 -14.8743 3.4827 13.6538 -8.0799 -6.5124 -20.3178 7.8357 -0.0000 0.0000 -0.5327 -18.1403 4.2729 -4.4016 -0.0000 -0.0000 0.0000 0.0000 0.0000 0.0000 4.0718 -18.0927 11.0831 5.1745 17.9544 -7.1740 -0.0000 -0.0000 0.3181 -17.9325 10.5330 9.2768 -0.0000 -0.0000 0.0000 -0.0000 0.0000 0.0000 -0.4571 1.0409 -39.2173 5.5319 -0.0000 0.0000 -5.1165 -1.8342 -3.2749 1.6379 -0.0000 -0.0000 0.1542 -1.8804 33.4209 6.2226 0.0000 0.0000 -5.5378 4.8131 4.7073 -1.1734 0.0000 -0.0000
 13.9129 -58.8248 35.7174 0.3743 -0.5222 176.3627 -0.3051 0.5323 0.0337 -0.6759 0.1108 0.0140 4.5388 -0.1681 -0.7396 2.5326 0.2886 -0.4644 9.8846 -0.6724 -8.1511 1.2302 -4.2666 -14.8666 3.4838 13.6513 -8.0704 -6.5161 -20.3119 7.8306 -0.0000 0.0000 -0.5239 -18.1608 4.2716 -4.4107 -0.0000 0.0000 -0.0000 0.0000 0.0000 -0.0000 4.0695 -18.0882 11.0778 5.1643 17.9326 -7.1683 -0.0000 -0.0000 0.2995 -17.9394 10.3877 9.2092 -0.0000 0.0000 -0.0000 0.0000 -0.0000 -0.0000 -0.4418 1.0366 -39.2392 5.5279 0.0000 -0.0000 -5.1235 -1.8323 -3.2730 1.6433 0.0000 -0.0000 0.1641 -1.8837 33.4194 6.2207 -0.0000 0.0000 -5.5346 4.8125 4.6890 -1.1773 -0.0000 -0.0000
